<svg class="logo-icon" width="384" height="132" viewBox="0 0 384 132" fill="none" xmlns="http://www.w3.org/2000/svg">
    <rect class="background" x="0.0112305" y="26.4038" width="377.774" height="105.755" rx="18" transform="rotate(-4 0.0112305 26.4038)" fill="#18181B"/>
    <path class="foreground" d="M42.5455 96.1043C39.3034 96.331 36.314 95.8233 33.5774 94.5812C30.8407 93.339 28.6283 91.5173 26.94 89.1158C25.2517 86.7144 24.2987 83.9575 24.0811 80.8451C23.8604 77.6895 24.4204 74.8268 25.7611 72.257C27.142 69.641 29.101 67.5275 31.6381 65.9166C34.1753 64.3057 37.0865 63.3854 40.3718 63.1557C42.8358 62.9834 45.1139 63.2584 47.206 63.9809C49.3384 64.6572 51.2632 65.7823 52.9805 67.3563L47.0704 74.1552C46.2781 73.3852 45.3712 72.8405 44.3498 72.521C43.3716 72.1984 42.2557 72.081 41.0021 72.1686C39.5755 72.2684 38.323 72.6818 37.2444 73.4088C36.206 74.0895 35.4019 75.0146 34.8321 76.1838C34.3025 77.3068 34.0891 78.6032 34.1918 80.073C34.2946 81.5427 34.6879 82.8184 35.3717 83.9C36.0987 84.9786 37.0468 85.8028 38.2161 86.3726C39.3853 86.9424 40.6616 87.179 42.0449 87.0822C43.3417 86.9915 44.4722 86.6953 45.4362 86.1935C46.4404 85.6454 47.2812 84.9351 47.9587 84.0623L54.6927 89.977C53.1709 91.821 51.4043 93.2694 49.3929 94.3223C47.3784 95.3319 45.0959 95.9259 42.5455 96.1043ZM71.2947 94.094C68.0526 94.3207 65.0632 93.8129 62.3266 92.5708C59.6301 91.2824 57.4377 89.4375 55.7495 87.0361C54.0612 84.6347 53.1082 81.8778 52.8906 78.7654C52.6729 75.653 53.2344 72.8119 54.5751 70.2421C55.9158 67.6724 57.8331 65.5835 60.327 63.9756C62.8179 62.3245 65.706 61.3841 68.9913 61.1544C72.2766 60.9247 75.266 61.4324 77.9594 62.6775C80.6528 63.9227 82.8437 65.7459 84.532 68.1474C86.2172 70.5055 87.1687 73.2408 87.3863 76.3532C87.604 79.4656 87.044 82.3283 85.7063 84.9413C84.3687 87.5544 82.4544 89.6864 79.9635 91.3375C77.4696 92.9454 74.58 93.8642 71.2947 94.094ZM70.6644 85.081C72.0909 84.9812 73.3234 84.591 74.3617 83.9102C75.3971 83.1862 76.1565 82.2426 76.6398 81.0794C77.1634 79.8699 77.3738 78.5303 77.271 77.0606C77.1682 75.5908 76.7765 74.3368 76.0957 73.2984C75.4119 72.2168 74.5085 71.4112 73.3855 70.8816C72.3027 70.3057 71.0481 70.0676 69.6215 70.1674C68.2383 70.2641 67.0289 70.6745 65.9936 71.3984C64.9552 72.0792 64.1727 73.0027 63.6461 74.1689C63.1195 75.3352 62.9076 76.6532 63.0104 78.1229C63.1101 79.5494 63.5034 80.8251 64.1902 81.9499C64.874 83.0316 65.7789 83.8588 66.9049 84.4316C68.028 84.9612 69.2811 85.1777 70.6644 85.081ZM104.306 91.7204C101.323 91.929 98.6146 91.4017 96.1805 90.1384C93.7897 88.8721 91.8381 87.0538 90.3257 84.6835C88.8566 82.3102 88.0117 79.5457 87.791 76.3901C87.5704 73.2345 88.0223 70.3793 89.1469 67.8247C90.3146 65.267 91.9942 63.1948 94.1855 61.608C96.42 60.0183 99.0287 59.1191 102.011 58.9106C104.173 58.7594 106.147 59.0341 107.933 59.7345C109.763 60.4319 111.291 61.4761 112.518 62.8673C113.785 64.2122 114.548 65.8095 114.808 67.6592L115.737 80.9518C115.738 82.8196 115.229 84.5493 114.211 86.1409C113.189 87.6892 111.824 88.9793 110.116 90.011C108.404 90.9995 106.467 91.5693 104.306 91.7204ZM105.431 82.6499C106.857 82.5501 108.068 82.1614 109.063 81.4836C110.055 80.7627 110.815 79.8191 111.341 78.6528C111.868 77.4866 112.08 76.1686 111.977 74.6988C111.874 73.2291 111.482 71.975 110.802 70.9367C110.161 69.852 109.278 69.0233 108.152 68.4505C107.069 67.8746 105.836 67.635 104.453 67.7317C103.069 67.8285 101.86 68.2388 100.825 68.9628C99.8326 69.6838 99.0516 70.6289 98.4818 71.7982C97.9552 72.9644 97.7418 74.2608 97.8415 75.6873C97.9413 77.1138 98.333 78.3679 99.0168 79.4495C99.7006 80.5311 100.605 81.3583 101.732 81.9312C102.858 82.504 104.091 82.7436 105.431 82.6499ZM122.416 89.8025L112.69 90.4826L112.096 81.9883L113.052 74.2327L110.831 66.6993L109.203 43.4211L119.124 42.7274L122.416 89.8025ZM142.419 89.1204C139.004 89.3592 135.908 88.8807 133.132 87.6848C130.395 86.4427 128.182 84.6209 126.494 82.2195C124.806 79.8181 123.851 77.0396 123.631 73.8839C123.41 70.7283 123.948 67.8671 125.246 65.3004C126.584 62.6874 128.478 60.5784 130.928 58.9736C133.379 57.3687 136.204 56.4544 139.403 56.2307C142.515 56.0131 145.307 56.4912 147.778 57.665C150.249 58.8388 152.238 60.5676 153.745 62.8514C155.294 65.1322 156.176 67.8072 156.391 70.8764C156.43 71.4384 156.429 72.0466 156.388 72.701C156.387 73.3092 156.329 74.0301 156.213 74.8635L129.049 76.8281L128.573 70.0198L151.523 68.3498L147.443 71.5021C147.272 69.6896 146.887 68.2179 146.287 67.087C145.683 65.9129 144.842 65.0595 143.762 64.5269C142.722 63.948 141.468 63.7099 139.998 63.8127C138.442 63.9215 137.106 64.3842 135.99 65.2006C134.915 65.9709 134.098 67.0271 133.54 68.3693C133.026 69.7084 132.833 71.3074 132.963 73.1662C133.093 75.025 133.529 76.6017 134.272 77.8964C135.054 79.1449 136.076 80.0943 137.338 80.7445C138.64 81.3485 140.134 81.5915 141.819 81.4736C143.376 81.3648 144.762 81.0072 145.98 80.4008C147.194 79.7512 148.239 78.8528 149.114 77.7056L154.942 82.7714C153.513 84.6958 151.728 86.189 149.586 87.2509C147.445 88.3129 145.056 88.936 142.419 89.1204ZM220.095 83.754C218.236 83.8839 216.382 83.7747 214.534 83.4261C212.728 83.0745 211.017 82.5209 209.4 81.7652C207.824 80.9632 206.454 80.0164 205.292 78.9248L210.534 72.8243C211.65 73.8756 212.944 74.6757 214.416 75.2243C215.885 75.7298 217.462 75.9235 219.148 75.8056C220.315 75.724 221.19 75.4892 221.771 75.101C222.395 74.7099 222.686 74.2117 222.643 73.6065C222.589 72.8284 222.159 72.272 221.354 71.9374C220.589 71.5565 219.612 71.2556 218.424 71.0346C217.232 70.7704 215.975 70.4891 214.651 70.1907C213.327 69.8923 212.057 69.4381 210.841 68.8281C209.626 68.2181 208.608 67.3336 207.789 66.1746C206.966 64.9724 206.489 63.4202 206.356 61.5182C206.213 59.4865 206.61 57.6995 207.544 56.1572C208.476 54.5717 209.863 53.2802 211.704 52.2826C213.546 51.2851 215.742 50.6971 218.292 50.5188C220.972 50.3314 223.47 50.6346 225.784 51.4284C228.139 52.176 230.093 53.4077 231.646 55.1235L226.404 61.224C225.328 60.1264 224.147 59.3836 222.86 58.9958C221.616 58.6049 220.411 58.4503 219.244 58.5319C218.12 58.6105 217.289 58.8424 216.751 59.2275C216.21 59.5694 215.961 60.0429 216.003 60.6481C216.049 61.2965 216.452 61.7896 217.214 62.1272C217.977 62.4649 218.952 62.7442 220.14 62.9652C221.328 63.1862 222.586 63.4675 223.913 63.8091C225.24 64.1506 226.513 64.6481 227.732 65.3013C228.95 65.9546 229.971 66.8823 230.793 68.0845C231.613 69.2435 232.092 70.8173 232.231 72.8057C232.446 75.8749 231.449 78.3989 229.242 80.3777C227.078 82.3535 224.029 83.4789 220.095 83.754ZM253.869 81.2619C251.751 81.4101 249.777 81.1354 247.947 80.438C246.117 79.7406 244.591 78.718 243.367 77.3701C242.14 75.9789 241.375 74.36 241.073 72.5133L240.143 59.2207C240.186 57.3498 240.717 55.6186 241.735 54.0271C242.753 52.4355 244.118 51.1455 245.83 50.157C247.542 49.1685 249.457 48.6002 251.575 48.4521C254.557 48.2435 257.244 48.7724 259.635 50.0387C262.069 51.302 264.021 53.1203 265.49 55.4935C267.002 57.8638 267.869 60.6268 268.089 63.7824C268.31 66.938 267.836 69.7947 266.669 72.3524C265.544 74.907 263.865 76.9793 261.63 78.569C259.439 80.1557 256.852 81.0534 253.869 81.2619ZM236.598 95.1756L233.464 50.37L243.385 49.6763L243.952 57.7815L242.866 65.5462L244.892 73.0932L246.389 94.491L236.598 95.1756ZM251.428 72.4408C252.854 72.341 254.064 71.9306 255.056 71.2097C256.091 70.4857 256.872 69.5406 257.399 68.3743C257.925 67.2081 258.139 65.9117 258.039 64.4852C257.936 63.0155 257.543 61.7398 256.859 60.6582C256.175 59.5766 255.272 58.771 254.149 58.2413C253.066 57.6655 251.833 57.4259 250.45 57.5226C249.066 57.6194 247.857 58.0297 246.822 58.7537C245.827 59.4314 245.066 60.3534 244.539 61.5197C244.013 62.6859 243.801 64.0039 243.903 65.4737C244.003 66.9002 244.373 68.1557 245.014 69.2404C245.698 70.322 246.603 71.1492 247.729 71.722C248.855 72.2949 250.088 72.5345 251.428 72.4408ZM284.846 79.0959C281.949 79.2984 279.306 78.7665 276.915 77.5002C274.567 76.2308 272.637 74.411 271.125 72.0408C269.656 69.6675 268.811 66.903 268.59 63.7474C268.37 60.5917 268.822 57.7366 269.946 55.1819C271.114 52.6242 272.772 50.5535 274.92 48.9698C277.111 47.3831 279.655 46.4885 282.551 46.286C284.669 46.1379 286.6 46.4155 288.344 47.119C290.13 47.8194 291.615 48.8667 292.799 50.2608C293.979 51.6118 294.699 53.2121 294.959 55.0619L295.911 68.6786C295.911 70.5465 295.422 72.2531 294.444 73.7984C293.507 75.2974 292.202 76.5181 290.53 77.4603C288.859 78.4026 286.964 78.9477 284.846 79.0959ZM286.23 70.0071C288.348 69.859 290.007 69.048 291.207 67.574C292.404 66.0568 292.927 64.2175 292.776 62.0561C292.674 60.5864 292.28 59.3107 291.596 58.2291C290.956 57.1445 290.074 56.3374 288.951 55.8077C287.868 55.2319 286.635 54.9923 285.252 55.089C283.869 55.1858 282.659 55.5961 281.624 56.3201C280.629 56.9978 279.846 57.9213 279.277 59.0906C278.75 60.2568 278.538 61.5748 278.641 63.0446C278.741 64.4711 279.132 65.7252 279.816 66.8068C280.5 67.8884 281.405 68.7156 282.531 69.2884C283.657 69.8613 284.89 70.1009 286.23 70.0071ZM293.489 77.8399L292.895 69.3456L293.851 61.59L291.825 54.043L291.285 46.3268L301.012 45.6467L303.215 77.1597L293.489 77.8399ZM307.607 76.8526L305.403 45.3396L315.324 44.6459L317.528 76.1589L307.607 76.8526ZM310.092 40.6461C308.536 40.7549 307.203 40.3268 306.093 39.3619C305.023 38.3508 304.435 37.0887 304.33 35.5757C304.221 34.0195 304.627 32.6879 305.549 31.5809C306.514 30.4709 307.774 29.8615 309.33 29.7527C310.887 29.6439 312.198 30.0734 313.265 31.0414C314.332 32.0093 314.92 33.2714 315.028 34.8276C315.134 36.3405 314.728 37.6721 313.809 38.8224C312.887 39.9294 311.648 40.5373 310.092 40.6461ZM342.734 74.3963L341.478 56.4352C341.363 54.7925 340.753 53.5103 339.646 52.5886C338.579 51.6207 337.267 51.1911 335.711 51.3C334.63 51.3755 333.696 51.6798 332.908 52.2127C332.117 52.7024 331.514 53.3962 331.099 54.294C330.681 55.1486 330.509 56.1162 330.585 57.1969L326.628 55.584C326.455 53.12 326.845 50.9208 327.795 48.9865C328.746 47.0521 330.138 45.5213 331.97 44.3941C333.843 43.2206 335.99 42.5492 338.41 42.3799C340.745 42.2167 342.837 42.6351 344.688 43.6351C346.579 44.5888 348.107 45.9372 349.272 47.6802C350.436 49.4232 351.094 51.3754 351.245 53.5368L352.655 73.7026L342.734 74.3963ZM321.92 75.8518L319.716 44.3387L329.637 43.645L331.841 75.158L321.92 75.8518Z" fill="white"/>
    <path class="accent" d="M159.737 87.1927L157.534 55.6796L167.455 54.9859L169.658 86.499L159.737 87.1927ZM162.223 50.9861C160.667 51.0949 159.334 50.6669 158.224 49.702C157.154 48.6908 156.566 47.4287 156.46 45.9157C156.351 44.3595 156.758 43.028 157.679 41.921C158.644 40.8109 159.905 40.2015 161.461 40.0927C163.017 39.9839 164.329 40.4135 165.396 41.3814C166.462 42.3493 167.05 43.6114 167.159 45.1676C167.265 46.6806 166.858 48.0122 165.94 49.1624C165.018 50.2694 163.779 50.8773 162.223 50.9861ZM194.865 84.7363L193.609 66.7752C193.494 65.1325 192.883 63.8504 191.776 62.9287C190.709 61.9607 189.398 61.5312 187.842 61.64C186.761 61.7156 185.827 62.0198 185.039 62.5527C184.247 63.0425 183.644 63.7362 183.229 64.634C182.811 65.4886 182.64 66.4562 182.716 67.5369L178.758 65.924C178.586 63.4601 178.975 61.2609 179.926 59.3265C180.877 57.3922 182.268 55.8614 184.101 54.7341C185.974 53.5606 188.12 52.8892 190.541 52.72C192.875 52.5567 194.968 52.9751 196.819 53.9751C198.71 54.9288 200.238 56.2772 201.402 58.0202C202.567 59.7633 203.224 61.7155 203.376 63.8768L204.786 84.0426L194.865 84.7363ZM174.051 86.1918L171.847 54.6788L181.768 53.985L183.971 85.4981L174.051 86.1918Z" fill="#46E7A8"/>
</svg>